<svg xmlns="http://www.w3.org/2000/svg" viewBox="0 0 378.38 82.26"><defs><style>.cls-1{fill:#fff;}</style></defs><g id="Layer_2" data-name="Layer 2"><g id="Layer_1-2" data-name="Layer 1"><path class="cls-1" d="M19.44,28.49H0V17.15H52.66V28.49H33.29V81.14H19.44Z"/><path class="cls-1" d="M73.36,13.39V38.77c2.11-3.11,6-6.79,13.76-6.79,9,0,16.09,5.31,16.09,18.34V81.14H90V52.31c0-6.25-2.21-9.57-7.79-9.57-7.39,0-8.84,5.5-8.84,12.91V81.14H60.05V13.39Z"/><path class="cls-1" d="M109.9,46.13c0-4.77,0-9-.09-13h13c.18,1.07.35,5.84.35,8.43C125.32,36,130.44,32,138.62,32v12.7C129,44.43,123.2,47,123.2,60.19v21H109.9Z"/><path class="cls-1" d="M155.1,60c0,6,3,11.89,9.65,11.89,5.53,0,7.12-2.23,8.38-5.13h13.31c-1.7,5.88-6.95,15.54-22,15.54-15.83,0-22.69-11.84-22.69-24.44,0-15.07,7.73-25.84,23.16-25.84C181.37,32,187,43.92,187,55.91a30.27,30.27,0,0,1-.17,4.05Zm18.56-8.17c-.09-5.59-2.33-10.3-8.81-10.3s-8.94,4.4-9.47,10.3Z"/><path class="cls-1" d="M234.77,68.73a107.79,107.79,0,0,0,.65,12.41H222.71a19.57,19.57,0,0,1-.67-4.69c-1.74,2.69-5,5.81-13.51,5.81-11.58,0-16.47-7.62-16.47-15.07,0-10.95,8.79-16,22.88-16h6.85V48.26c0-3.42-1.23-6.78-7.4-6.78-5.61,0-6.84,2.39-7.45,5.87H194.29c.72-8.54,6-15.45,20.61-15.37,12.86.09,19.87,5.11,19.87,16.55Zm-13-9.46h-5.42c-8,0-11,2.45-11,7.08,0,3.48,2.13,6.41,6.91,6.41,8.45,0,9.49-5.88,9.49-12.23Z"/><path class="cls-1" d="M288.11,13.39V67.94c0,4.37,0,8.81.09,13.2H275.41c-.27-1.44-.52-3.92-.61-5-2.32,3.79-6.45,6.14-13.63,6.14-12.15,0-19.88-9.76-19.88-24.75,0-14.78,8.22-25.53,21.82-25.53,6.92,0,10.63,2.44,11.69,4.6V13.39ZM255,57.16c0,9.37,3.64,14.44,10.16,14.44,9.14,0,10.2-7.63,10.2-14.53,0-8.22-1.16-14.43-9.86-14.43C258.48,42.64,255,48.09,255,57.16Z"/><path class="cls-1" d="M327.4,53.64a1.33,1.33,0,0,1,.45.07c-.48,1.16-.94,2.29-1.38,3.4-.59,1.47-1.13,2.87-1.63,4.2,0,0,0,0,0,0q-.9,1.53-1.95,3.18c-1.27,2-2.69,4-4.2,6.08A57.82,57.82,0,0,1,314,76.12a27.93,27.93,0,0,1-4.7,4,7.58,7.58,0,0,1-4,1.38,5.26,5.26,0,0,1-4.44-2,9.73,9.73,0,0,1-1.68-6.08,21.48,21.48,0,0,1,.61-4.76,48.62,48.62,0,0,1,1.67-5.54c.7-1.92,1.47-3.87,2.29-5.77s1.63-3.74,2.45-5.51c1-2.25,1.91-4.36,2.71-6.24a13.59,13.59,0,0,0,1.32-4.76,2.83,2.83,0,0,0-.34-1.23l-.11-.22-.06,0a2.39,2.39,0,0,1,.67-.46,6.41,6.41,0,0,1,3-.63,7.59,7.59,0,0,1,2.09.32,5.82,5.82,0,0,1,1.93,1,4.91,4.91,0,0,1,1.41,1.79,6.84,6.84,0,0,1,.59,3.05,14.31,14.31,0,0,1-.72,4.15,45.69,45.69,0,0,1-2,5.16c-.82,1.82-1.72,3.64-2.69,5.43s-1.94,3.56-2.87,5.23c-1.32,2.39-2.51,4.62-3.55,6.63a12.38,12.38,0,0,0-1.74,5.14A2,2,0,0,0,308,78.15a5,5,0,0,0,3.11-1.57,33.24,33.24,0,0,0,3.27-3.36c1.16-1.36,2.37-2.89,3.6-4.55s2.39-3.37,3.49-5.09,2.1-3.41,3-5a37,37,0,0,0,2-4.21C326.71,53.75,327,53.64,327.4,53.64Z"/><path class="cls-1" d="M329.25,54.37a1.31,1.31,0,0,1-.07.31,2.34,2.34,0,0,1-.13.38c-.2.42-.44.91-.72,1.45.29-.73.6-1.48.91-2.23A.28.28,0,0,1,329.25,54.37Z"/><path class="cls-1" d="M329.24,54.28c-.31.75-.62,1.5-.91,2.23.28-.54.52-1,.72-1.45a2.34,2.34,0,0,0,.13-.38,1.31,1.31,0,0,0,.07-.31A.28.28,0,0,0,329.24,54.28Z"/><path class="cls-1" d="M378.38,20.21c0,.47-.62,1.14-1.66,1.79a23.19,23.19,0,0,1-5.92,2.43,71.31,71.31,0,0,1-8.95,1.82,99.66,99.66,0,0,1-10.7.91l-1,0-.37.9c-1.34,3.3-3,6.85-4.82,10.57s-3.75,7.56-5.52,11.22c-1.41,2.76-2.78,5.52-4.06,8.21S333,63.22,332,65.44s-1.87,4.29-2.47,6a14.33,14.33,0,0,0-1,4.44c0,2.17,1.59,2.24,1.78,2.24a5.07,5.07,0,0,0,3.23-1.64,32.31,32.31,0,0,0,3.22-3.46c1.12-1.37,2.31-2.92,3.53-4.62s2.39-3.41,3.49-5.13,2.08-3.39,2.92-4.91a27.87,27.87,0,0,0,1.9-4c.23-.61.49-.72.92-.72a1.42,1.42,0,0,1,.9.3.44.44,0,0,1,.2.39l0,.14c-.06.18-.09.25-.09.25-.61,1.23-1.43,2.75-2.43,4.53S345.92,63,344.61,65s-2.73,4-4.22,6a53,53,0,0,1-4.55,5.37,26.34,26.34,0,0,1-4.56,3.77,7.31,7.31,0,0,1-3.84,1.3,5.28,5.28,0,0,1-4.44-2,9.73,9.73,0,0,1-1.67-6.08c0-.39,0-.77,0-1.14s.07-.76.13-1.18a30,30,0,0,1,1.42-5.51c.38-1.13.81-2.32,1.28-3.59s1.06-2.8,1.66-4.31l.47-1.16c.28-.54.52-1,.72-1.45a2.34,2.34,0,0,0,.13-.38,1.31,1.31,0,0,0,.07-.31.28.28,0,0,0,0-.09c.14-.34.28-.69.43-1,.66-1.59,1.36-3.22,2.07-4.86L331.22,45,334,38.55l4.08-9.29.93-2.1h-2.3c-3,0-5.93.05-8.59.14A52.35,52.35,0,0,0,321,28a15.88,15.88,0,0,0-5.18,1.71,4.82,4.82,0,0,0-2.61,4v.12a1.81,1.81,0,0,1-.34,1,.59.59,0,0,1-.48.22c-.2,0-.6-.23-1.12-.85a5.35,5.35,0,0,1-.81-3.31,8.22,8.22,0,0,1,1.15-4.57,7.92,7.92,0,0,1,3.25-2.81A17.67,17.67,0,0,1,320.26,22a52.53,52.53,0,0,1,7.09-.45c1.93,0,4,.06,6,.18s4.36.28,6.56.46l1.11.09.41-1c.69-1.76,1.28-3.42,1.75-4.92a13.5,13.5,0,0,0,.77-3.61,1.9,1.9,0,0,0-.31-1,2.63,2.63,0,0,1,.66-.44,6.54,6.54,0,0,1,3-.63,9,9,0,0,1,2.07.28,5.84,5.84,0,0,1,1.93.89,4.88,4.88,0,0,1,1.43,1.61,5.14,5.14,0,0,1,.55,2.59,20.18,20.18,0,0,1-.88,5.35l-.53,1.91h4.47c2.32,0,4.58-.07,6.74-.19s4.17-.32,5.87-.57a23,23,0,0,0,4.31-1c2.08-.76,2.51-2,2.51-2.81a1.41,1.41,0,0,1,.11-.67.66.66,0,0,1,.34-.05c.08,0,.49,0,1.32.77A2,2,0,0,1,378.38,20.21Z"/><path class="cls-1" d="M327.25,54.37a1.31,1.31,0,0,1-.07.31,2.34,2.34,0,0,1-.13.38c-.2.42-.44.91-.72,1.45.29-.73.6-1.48.91-2.23A.28.28,0,0,1,327.25,54.37Z"/><circle class="cls-1" cx="319.44" cy="9.44" r="9.44"/></g></g></svg>