<svg xmlns="http://www.w3.org/2000/svg" viewBox="0 0 545.72 154.9"><defs><style>.cls-1{fill:#006838;}</style></defs><g id="Layer_2" data-name="Layer 2"><g id="Layer_1-2" data-name="Layer 1"><path class="cls-1" d="M90.77,62c3.36-8.26,5.26-15.86,4-21.87-2.4-5-12.76-6.4-14.9-1.16,1.21,3.2-1.39,7.5-2.53,11.22l-.23,0a42.71,42.71,0,0,1-4.37,10h.43c-.55,1.35-1.13,2.7-1.72,4.08ZM86.24,91.41c-1.87,4.88-17,30.84-21.38,27.5C66.91,106,78.92,87.21,87.2,70q1.13-2.37,2.16-4.68Q79.66,66.44,70,67.63c-.87,1.94-1.75,3.91-2.64,5.88-5.81,12.91-12,26.27-14.95,39.16-.34,30.51,25,7.78,32.19-6.36,2.85-4.72,6.24-9.52,7.79-14.22C92.33,88.88,87.14,88.24,86.24,91.41Z"/><path class="cls-1" d="M134.27,61.69l-8.63,1.5c-.36.06-.74,1.09-1.38,1.11-.38,0-1-.7-1.35-.63-8.75,1.52-21.7,3.8-35.71,6.29C80.7,71.11,74,72.31,67.33,73.51,56,75.55,45,77.57,35.73,79.33c-.17-1-.33-1.83-.48-2.65l3.27-1.36c-2-1.3-9.54-.14-11,1.7l3.79.3c.14.75.3,1.59.5,2.59a10.85,10.85,0,0,1-5.22-.26c-2.14-.84-2.83-3.9-1-5.17a10.31,10.31,0,0,1,4.22-1.72c6-.92,12-1.71,18.07-2.45L70,67.63q9.69-1.2,19.39-2.35l33-4c.45-.05.72-.91,1.17-1,.9-.13,1.47.65,1.9.6,4.49-.55,12.61-1.3,12.33-.53-.07.18-.63.45-1.86.84Z"/><path class="cls-1" d="M62.8,40.19a32.66,32.66,0,0,1-10.41-.89,13.35,13.35,0,0,1-6-3.06c-2.16-2-2.23-4.57-.07-6.34,3-2.48,6.67-2.86,10.51-2.42a11.89,11.89,0,0,1,1.66.33c4.52,1.15,6.9,4.29,6.77,8.93,0,.38,0,.75,0,1.23a32.72,32.72,0,0,0,8.47-2.15c1.69-.68,3.32-1.54,5-2.36.58-.29,1.13-.51,1.57.18s0,1.17-.58,1.52A37.24,37.24,0,0,1,66,39.81,1.39,1.39,0,0,0,64.59,41a17.4,17.4,0,0,1-7.86,10.51c-4.6,2.9-9.41,5.48-14,8.36a63.05,63.05,0,0,0-7,5.1,6,6,0,0,0-2.24,5c0,.63-.15,1.16-.87,1.15s-1-.58-1-1.26A8.16,8.16,0,0,1,33.92,64c2.56-2.91,5.91-4.73,9.18-6.69,4.63-2.78,9.31-5.5,13.83-8.45a14,14,0,0,0,5.7-8C62.68,40.72,62.71,40.54,62.8,40.19Zm-15-9c-1.41,1.16-1.48,2.44,0,3.69a11,11,0,0,0,2.8,1.77c4,1.69,8.05,1.85,12.16,1.56a.78.78,0,0,0,.6-.45,6.92,6.92,0,0,0-2.56-7.09C57.39,28.51,50.75,28.78,47.78,31.22Z"/><path class="cls-1" d="M32.51,76.39a1.09,1.09,0,0,1,1.9.7c.28,1.46.46,2.93.79,4.38,1.07,4.83,2.7,9.44,6.37,13A35.24,35.24,0,0,0,46.24,98c.64.45,1.32.85.89,1.68s-1.18.51-1.85.14A21.45,21.45,0,0,1,34.92,87.52c-1.12-3.27-1.7-6.71-2.49-10.07A3,3,0,0,1,32.51,76.39Z"/><path class="cls-1" d="M77.45,0A77.45,77.45,0,1,0,154.9,77.45,77.53,77.53,0,0,0,77.45,0Zm0,144.9A67.45,67.45,0,1,1,144.9,77.45,67.52,67.52,0,0,1,77.45,144.9Z"/><path class="cls-1" d="M186.79,58.64H167.34V47.3H220V58.64H200.64V111.3H186.79Z"/><path class="cls-1" d="M240.7,43.54V68.92c2.11-3.11,6-6.78,13.76-6.78,9,0,16.1,5.3,16.1,18.33V111.3H257.34V82.46c0-6.25-2.22-9.56-7.8-9.56-7.39,0-8.84,5.49-8.84,12.91V111.3H227.4V43.54Z"/><path class="cls-1" d="M277.24,76.28c0-4.77,0-9-.09-13H290.2c.17,1.08.35,5.85.35,8.44,2.12-5.49,7.24-9.51,15.41-9.55V74.83c-9.65-.25-15.41,2.35-15.41,15.52v21H277.24Z"/><path class="cls-1" d="M322.45,90.12c0,6,3,11.88,9.64,11.88,5.54,0,7.12-2.22,8.38-5.13h13.32c-1.71,5.88-7,15.54-22.05,15.54-15.82,0-22.69-11.83-22.69-24.44,0-15.07,7.74-25.83,23.17-25.83,16.5,0,22.11,11.93,22.11,23.93a28.67,28.67,0,0,1-.18,4.05ZM341,82c-.09-5.6-2.32-10.3-8.81-10.3S323.26,76,322.73,82Z"/><path class="cls-1" d="M402.11,98.88a107.85,107.85,0,0,0,.65,12.42H390.05a19.66,19.66,0,0,1-.67-4.7c-1.74,2.7-5,5.81-13.5,5.81-11.59,0-16.48-7.62-16.48-15.07,0-10.94,8.79-16,22.88-16h6.86V78.41c0-3.41-1.23-6.77-7.4-6.77-5.62,0-6.85,2.38-7.46,5.86H361.63c.72-8.53,6-15.44,20.61-15.36,12.87.08,19.87,5.11,19.87,16.54Zm-13-9.46h-5.42c-8,0-11,2.45-11,7.08,0,3.48,2.13,6.41,6.92,6.41,8.45,0,9.49-5.88,9.49-12.22Z"/><path class="cls-1" d="M455.45,43.54V98.09c0,4.38,0,8.81.09,13.21H442.75c-.26-1.45-.52-3.93-.6-5-2.32,3.78-6.46,6.13-13.63,6.13-12.15,0-19.88-9.76-19.88-24.74,0-14.79,8.21-25.53,21.82-25.53,6.91,0,10.62,2.44,11.69,4.59V43.54ZM422.3,87.32c0,9.36,3.65,14.43,10.16,14.43,9.15,0,10.2-7.62,10.2-14.53,0-8.21-1.16-14.43-9.85-14.43C425.82,72.79,422.3,78.25,422.3,87.32Z"/><path class="cls-1" d="M494.74,83.79a1.33,1.33,0,0,1,.45.07c-.48,1.16-.94,2.29-1.38,3.4-.59,1.47-1.13,2.87-1.63,4.2,0,0,0,0,0,0q-.9,1.53-1.95,3.18c-1.27,2-2.69,4-4.2,6.08a57.82,57.82,0,0,1-4.66,5.52,27.93,27.93,0,0,1-4.7,4,7.58,7.58,0,0,1-4,1.38,5.26,5.26,0,0,1-4.44-2,9.73,9.73,0,0,1-1.68-6.08,21.48,21.48,0,0,1,.61-4.76,48.62,48.62,0,0,1,1.67-5.54c.7-1.92,1.47-3.87,2.29-5.77s1.63-3.74,2.45-5.51c1-2.25,1.91-4.36,2.71-6.24A13.59,13.59,0,0,0,477.58,71a2.83,2.83,0,0,0-.34-1.23l-.11-.22-.06,0a2.39,2.39,0,0,1,.67-.46,6.41,6.41,0,0,1,3-.63,7.59,7.59,0,0,1,2.09.32,5.82,5.82,0,0,1,1.93,1,4.91,4.91,0,0,1,1.41,1.79,6.84,6.84,0,0,1,.59,3,14.31,14.31,0,0,1-.72,4.15,45.69,45.69,0,0,1-2,5.16c-.82,1.82-1.72,3.64-2.69,5.43s-1.94,3.56-2.87,5.23c-1.32,2.39-2.51,4.62-3.55,6.63a12.38,12.38,0,0,0-1.74,5.14,2,2,0,0,0,2.15,2.06,5,5,0,0,0,3.11-1.57,33.24,33.24,0,0,0,3.27-3.36c1.16-1.36,2.37-2.89,3.6-4.55s2.39-3.37,3.49-5.09,2.1-3.41,3-5a37,37,0,0,0,2-4.21C494.05,83.9,494.31,83.79,494.74,83.79Z"/><path class="cls-1" d="M496.59,84.52a1.31,1.31,0,0,1-.07.31,2.34,2.34,0,0,1-.13.38c-.2.42-.44.91-.72,1.45.29-.73.6-1.48.91-2.23A.28.28,0,0,1,496.59,84.52Z"/><path class="cls-1" d="M496.58,84.43c-.31.75-.62,1.5-.91,2.23.28-.54.52-1,.72-1.45a2.34,2.34,0,0,0,.13-.38,1.31,1.31,0,0,0,.07-.31A.28.28,0,0,0,496.58,84.43Z"/><path class="cls-1" d="M545.72,50.36c0,.47-.62,1.14-1.66,1.79a23.19,23.19,0,0,1-5.92,2.43,71.31,71.31,0,0,1-8.95,1.82,99.66,99.66,0,0,1-10.7.91l-1,0-.37.9c-1.34,3.3-3,6.85-4.82,10.57s-3.75,7.56-5.52,11.22c-1.41,2.76-2.78,5.52-4.06,8.21s-2.42,5.13-3.44,7.35-1.87,4.29-2.47,6a14.33,14.33,0,0,0-1,4.44c0,2.17,1.59,2.24,1.78,2.24a5.07,5.07,0,0,0,3.23-1.64,32.31,32.31,0,0,0,3.22-3.46c1.12-1.37,2.31-2.92,3.53-4.62s2.39-3.41,3.49-5.13,2.08-3.39,2.92-4.91a27.87,27.87,0,0,0,1.9-4c.23-.61.49-.72.92-.72a1.42,1.42,0,0,1,.9.3.44.44,0,0,1,.2.39l0,.14c-.06.18-.09.25-.09.25-.61,1.23-1.43,2.75-2.43,4.53s-2.16,3.7-3.47,5.72-2.73,4-4.22,6a53,53,0,0,1-4.55,5.37,26.34,26.34,0,0,1-4.56,3.77,7.31,7.31,0,0,1-3.84,1.3,5.28,5.28,0,0,1-4.44-2,9.73,9.73,0,0,1-1.67-6.08c0-.39,0-.77,0-1.14s.07-.76.13-1.18a30,30,0,0,1,1.42-5.51c.38-1.13.81-2.32,1.28-3.59s1.06-2.8,1.66-4.31l.47-1.16c.28-.54.52-1,.72-1.45a2.34,2.34,0,0,0,.13-.38,1.31,1.31,0,0,0,.07-.31.28.28,0,0,0,0-.09c.14-.34.28-.69.43-1,.66-1.59,1.36-3.22,2.07-4.86l1.48-3.41,2.79-6.42,4.08-9.29.93-2.1h-2.3c-3,0-5.93,0-8.59.14a52.35,52.35,0,0,0-7.12.67,15.88,15.88,0,0,0-5.18,1.71,4.82,4.82,0,0,0-2.61,4V64a1.81,1.81,0,0,1-.34,1,.59.59,0,0,1-.48.22c-.2,0-.6-.23-1.12-.85a5.35,5.35,0,0,1-.81-3.31A8.22,8.22,0,0,1,479,56.47a7.92,7.92,0,0,1,3.25-2.81,17.67,17.67,0,0,1,5.39-1.53,52.53,52.53,0,0,1,7.09-.45c1.93,0,4,.06,6,.18s4.36.28,6.56.46l1.11.09.41-1c.69-1.76,1.28-3.42,1.75-4.92a13.5,13.5,0,0,0,.77-3.61,1.9,1.9,0,0,0-.31-1.05,2.63,2.63,0,0,1,.66-.44,6.54,6.54,0,0,1,3-.63,9,9,0,0,1,2.07.28,5.84,5.84,0,0,1,1.93.89,4.88,4.88,0,0,1,1.43,1.61,5.14,5.14,0,0,1,.55,2.59,20.18,20.18,0,0,1-.88,5.35l-.53,1.91h4.47c2.32,0,4.58-.07,6.74-.19s4.17-.32,5.87-.57a23,23,0,0,0,4.31-1c2.08-.76,2.51-2,2.51-2.81a1.41,1.41,0,0,1,.11-.67.66.66,0,0,1,.34,0c.08,0,.49,0,1.32.77A2,2,0,0,1,545.72,50.36Z"/><path class="cls-1" d="M494.59,84.52a1.31,1.31,0,0,1-.07.31,2.34,2.34,0,0,1-.13.38c-.2.42-.44.91-.72,1.45.29-.73.6-1.48.91-2.23A.28.28,0,0,1,494.59,84.52Z"/><circle class="cls-1" cx="486.79" cy="39.6" r="9.44"/></g></g></svg>